<svg xmlns="http://www.w3.org/2000/svg" viewBox="-59 -36 515 213"><defs/><path fill="#231f20" d="M0 0v75c0 34 41 67 55 67 13 0 55-33 55-67V0H0"/><path fill="#fff" d="M1 2v73c0 33 40 65 54 65 13 0 54-32 54-65V2H1"/><path fill="#e01932" d="M1 2h108v36H94v8H79v-8H62v8H47v-8H30v8H16v-8H1V2"/><path fill="#231f20" d="M94 46H79v-7H63v7H47v-7H31v7H15v-7H1v-1h15v8h14v-8h18v8h14v-8h18v8h14v-8h15v1H94v7"/><path fill="#fff" d="M14 8c-2 1-1 7 3 14 4 6 8 10 10 10l1-4-4-10c-4-6-8-10-10-10m13 26c-4 0-9-5-12-11-4-7-6-15-3-17a3 3 0 012 0c4 0 8 5 12 11l4 10c1 4-1 6-2 7a3 3 0 01-1 0"/><path fill="#fff" d="M20 16c-8 0-13 2-13 4 0 1 0 2 3 3l10 1h1c8 0 13-2 13-4 0 0-1-2-3-2l-11-2zm1 10h-1L9 25c-4-2-5-4-5-5 0-4 8-6 16-6l11 2c4 1 5 3 5 4 0 4-8 6-15 6"/><path fill="#fff" d="M27 8c-2 0-6 4-10 10l-4 9 1 5c2 0 6-4 10-10 4-7 5-13 3-14M14 34h-1c-2-1-3-3-2-7l4-10c3-6 8-11 12-11h1c4 2 2 10-2 17-3 5-8 11-12 11"/><path fill="#231f20" d="M14 34h-1c-1 0-2-1-2-3v-6h3v1l-1 3 1 2v1l3-2 4-4 4-6 3-9-1-3h-1l-6 6-4 6 3-6c4-5 7-6 7-6h2v3c0 5-3 9-3 9a37 37 0 01-8 11l-3 1a1 1 0 01-1 0v-3-3h-1l-1 5 2 3 4-2c3-1 6-6 7-6l5-11 1-4-1-4-3-1c-5 1-11 12-11 12h-1c1-1 7-12 12-13l3 1c1 1 2 3 1 5v4l-6 11-6 7-4 1"/><path fill="#231f20" d="M25 20l-5-7h1l4 7m1-2l-5-6 1-1 4 6v1m-11 6l-2-4C8 9 11 6 12 6c3-3 8 3 9 4h-1s-5-6-8-3c0 0-3 2 2 13l2 4h-1"/><path fill="#231f20" d="M18 24c-7-10-5-15-5-15l1-1c2-1 5 3 5 3v1l-5-4-1 1s-1 5 5 15m9 11l-7-4 1-1c3 4 5 4 7 4l1-3c1-3-2-11-2-11h1s3 8 2 11c0 0 0 3-2 3a3 3 0 01-1 1"/><path fill="#231f20" d="M27 32l-6-3 1-1c3 4 5 4 5 4v-3l-1-6v-1c0 1 2 3 2 7l-1 3m-8-3l-2-3 2 2v1m-6-6h-1l1-3h1l-1 3"/><path fill="#231f20" d="M25 24v-1h1v1h-1m-1 2l3-1v1h-3m-3 0L9 25c-2-1-5-2-5-5l2-4 5-2 1 1-5 2c-2 1-2 2-2 3 0 2 2 3 4 4 5 2 12 2 12 2"/><path fill="#231f20" d="M21 24c-6 0-13-1-14-3l-1-2 6-2-5 3c2 2 10 4 16 4h-2m-7-7v-1h2v1h-1-1m-1-2v-1h4l-4 1"/><path fill="#231f20" d="M15 24l-1-1v-1l1 1v1m8-7l-5-1h5v1m-3-3h1-1m7 1h-3v-1h3v1m-1 2h-1v-1h2l-1 1m3 7l-1-1 5-2 1-1-6-3h1s5 1 5 3v1l-5 3"/><path fill="#231f20" d="M29 26v-1s7-1 7-5c0-3-7-5-7-5 1 0 7 1 8 5 0 4-7 6-8 6"/><path fill="#fff" d="M14 12a2 2 0 11-4 0 2 2 0 014 0"/><path fill="#231f20" d="M12 10a2 2 0 100 3 2 2 0 100-3m0 4a2 2 0 110-4 2 2 0 010 4"/><path fill="#fff" d="M22 20c0 1 0 2-2 2a2 2 0 110-4c2 0 2 1 2 2"/><path fill="#231f20" d="M20 19a2 2 0 000 3 2 2 0 000-3m0 3a2 2 0 01-2-2 2 2 0 012-2 2 2 0 013 2 2 2 0 01-3 2"/><path fill="#fff" d="M19 32a2 2 0 11-4 0 2 2 0 014 0"/><path fill="#231f20" d="M17 30a2 2 0 100 3 2 2 0 000-3m0 4a2 2 0 01-2-2 2 2 0 014 0 2 2 0 01-2 2"/><path fill="#fff" d="M35 23a2 2 0 11-4 0 2 2 0 014 0"/><path fill="#231f20" d="M33 21a2 2 0 100 4 2 2 0 000-4m0 4a2 2 0 01-3-2 2 2 0 013-2 2 2 0 110 4"/><path fill="#fff" d="M83 8l-1 5 4 9c4 6 8 10 10 10l1-4-4-10c-4-6-8-10-10-10m13 26c-4 0-8-5-12-11l-4-10c-1-4 1-6 2-7h1c4 0 9 5 12 11l4 10c1 5 0 6-1 7a3 3 0 01-2 0"/><path fill="#fff" d="M89 16c-8 0-13 2-13 4l3 3 11 1c8 0 13-2 13-4 0-1-5-4-13-4zm1 10l-11-1c-4-2-5-4-5-5 0-4 8-6 15-6h1c8 0 16 2 16 6-1 4-8 6-16 6"/><path fill="#fff" d="M96 8c-2 0-6 4-10 10-4 7-4 13-3 14 2 0 7-4 10-10 4-7 5-13 4-14h-1M83 34a3 3 0 01-1 0c-4-2-1-10 2-17 4-6 9-11 12-11h2c3 2 1 10-3 17-3 6-8 11-12 11"/><path fill="#231f20" d="M83 35l-1-1c-1 0-2-1-2-3 0 0-1-2 1-6h2v7l3-2 4-4 4-6 3-9-1-3s-3 1-7 6l-4 6 4-6c3-5 6-6 6-6h2l1 3c-1 5-3 9-4 9l-3 6-5 5-3 1a1 1 0 01-1 0v-3-3h-1v5l1 3 5-1 6-7 5-11 1-4-1-4-2-1c-6 1-12 12-12 12 0-1 6-12 12-13l2 1 2 5-1 4s-2 7-6 11l-6 7-4 2"/><path fill="#231f20" d="M94 20l-5-7h1l5 7h-1m1-2l-4-6v-1l5 7h-1m-11 6l-2-4C77 9 81 7 81 6c4-3 9 3 9 4h-1s-4-6-8-3c0 0-3 2 2 13l2 4h-1"/><path fill="#231f20" d="M87 24c-7-10-5-15-5-15l1-1c2-1 5 3 6 3l-1 1c-1-1-3-4-5-4v1s-2 5 5 15h-1m9 11l-7-4 1-1c4 4 6 4 7 4l2-3c1-3-3-11-3-11h1s3 8 2 11c0 0 0 3-2 3l-1 1"/><path fill="#231f20" d="M96 32l-5-3 5 3 1-3-2-6 1-1 1 7v3h-1m-8-3l-2-3h1l2 2-1 1m-6-6h-1l1-3h1l-1 3"/><path fill="#231f20" d="M95 24v-1h1v1h-1m-2 2l3-1v1h-3m-3 1l-12-2c-2-1-4-2-5-5l3-4 5-2v1l-5 2-2 3c0 2 2 3 5 4 4 2 11 2 11 2v1"/><path fill="#231f20" d="M90 24c-6 0-12-1-14-3v-1c0-2 5-3 5-3h1l-6 3c2 2 10 4 16 4h-2m-7-7v-1h2v1h-2m0-2v-1h3l-3 1"/><path fill="#231f20" d="M84 24l-1-1 1-1v2m8-7h-5v-1h5v1m-3-3h1-1m7 1h-3v-1h4l-1 1m0 2h-2l1-1h1v1m2 7v-1l4-2 1-1-5-3s5 1 6 3l-1 1c0 1-1 2-5 3"/><path fill="#231f20" d="M99 26v-1s6-1 6-5c0-3-6-5-7-5h1s7 1 7 5-7 6-7 6"/><path fill="#fff" d="M83 12a2 2 0 01-4 0 2 2 0 014 0"/><path fill="#231f20" d="M81 10a2 2 0 102 2 2 2 0 00-2-2m0 4a2 2 0 010-4 2 2 0 012 2 2 2 0 01-2 2"/><path fill="#fff" d="M92 20a2 2 0 11-4 0 2 2 0 014 0"/><path fill="#231f20" d="M90 19a2 2 0 100 3 2 2 0 000-3m0 4a2 2 0 112-3 2 2 0 01-2 3"/><path fill="#fff" d="M88 32a2 2 0 01-4 0 2 2 0 014 0"/><path fill="#231f20" d="M86 30a2 2 0 100 3 2 2 0 000-3m0 4a2 2 0 010-5 2 2 0 013 3 2 2 0 01-3 2"/><path fill="#fff" d="M104 23l-2 2a2 2 0 01-2-2 2 2 0 014 0"/><path fill="#231f20" d="M102 21a2 2 0 000 4 2 2 0 000-4m0 4a2 2 0 01-2-2 2 2 0 012-2 2 2 0 012 2 2 2 0 01-2 2"/><path fill="#e6ab39" d="M54 8V6l1-2 2 2v2l5 3 2-2s1-1 2 0v2l-2 2 2 5h4s1 1 1 3l-2 1h-3l-2 5 3 2v2h-3l-2-2-5 2v3l-2 2-1-2v-2l-6-3-2 2h-2v-2l2-2-3-5h-2s-2-1-1-3l1-1h2l3-5-2-2s-1-2 1-2h2l1 1 6-2"/><path fill="#231f20" d="M54 34l1 1 2-1v-3c3 0 5-2 5-2l2 2h1l1-1v-1l-2-2v-1c2-1 2-4 2-4v-1h4v-2h-4v-1l-2-5a79 79 0 012-3 1 1 0 000-1h-1-1l-2 2c-2-2-5-2-5-2V8 6l-2-1-1 1v3l-6 2-1-2h-2l-1 2 2 2c-2 2-2 5-2 5v1h-4l1 2h3v1c0 3 2 5 2 5l-2 2v2h2l2-2 6 2zm1 2l-2-2v-2a12 12 0 01-5-2l-1 1-2 1-1-1a2 2 0 010-3l1-1-2-5h-2c-1 0-2-1-2-3l2-1h2l2-5-1-2V8h1l2 1 1 1 5-2V6s0-2 2-2l2 2v2l5 2 2-2h1l2 1a2 2 0 010 1l-1 2-1 1 2 5h3l1 1v2l-2 1h-2l-2 5 2 2v2l-2 1-1-1-2-1-5 2v2c0 1 0 2-2 2"/><path fill="#fff" d="M64 20c0 5-4 9-9 9s-9-4-9-9 4-9 9-9 9 4 9 9"/><path fill="#231f20" d="M55 11c-5 0-9 4-9 9a9 9 0 0018 0c0-5-4-9-9-9m0 19c-5 0-10-5-10-10a10 10 0 0119 0c0 5-4 10-9 10"/><path fill="#e6ab39" d="M61 20a6 6 0 01-6 6 6 6 0 116-6"/><path fill="#231f20" d="M55 14a6 6 0 00-6 6 6 6 0 006 6 6 6 0 006-6 6 6 0 00-6-6m0 13a7 7 0 01-7-7 7 7 0 0114 0 7 7 0 01-7 7"/><path fill="#fff" d="M58 20c0 2-1 3-3 3a4 4 0 010-7 4 4 0 013 4"/><path fill="#231f20" d="M55 17a3 3 0 00-3 3 3 3 0 003 3 3 3 0 003-3 3 3 0 00-3-3m0 7a4 4 0 01-4-4 4 4 0 014-4 4 4 0 014 4 4 4 0 01-4 4"/><path fill="#638e8c" d="M46 19h3l1-4-2-1-2 5"/><path fill="#231f20" d="M48 14l-2 5 2-1 2-3zm-3 5c1-4 3-5 3-5v-1l3 2v1c-2 1-2 3-2 3h-4"/><path fill="#638e8c" d="M52 14l-1-2s3-2 6-1l-1 3h-4"/><path fill="#231f20" d="M51 12l1 2 3-1h1l1-2a8 8 0 00-2 0 8 8 0 00-4 1m1 3l-2-3 1-1a9 9 0 016 0h1l-1 3h-1a6 6 0 00-1 0l-3 1"/><path fill="#0c3c5d" d="M50 15l-2-1 3-2 1 2-2 1"/><path fill="#231f20" d="M49 14l1 1 2-1-1-2-2 2m2 2l-3-2 3-3 2 3-1 1-1 1m-2 2l-3-1 1-1 2 1v1m5-4v-3h1v3h-1m5 1l-1-1 1-2h1l-1 3m-13 7v-1h3l-3 1"/><path fill="#fff" d="M20 26v1"/><path fill="#231f20" d="M20 27l-1-1h1l1 1h-1m69 0v-1l1 1h-1"/><path fill="#e5ae4a" fill-rule="evenodd" d="M63 103l-1 3-7 4s-3 1-2 3l1 1 2 1h5l2-1 1-1 1 2 1-2 1 3s3-3 2-6l1 4 1-3v-4-1l-2-5 1-4-1-6-6-1-4 1-1 5 2 3 3 4"/><path fill="#231f20" d="M60 115a1 1 0 001 0l2-2 1-1 1 1v1l1-1-1-2 1 1 1 3c1-1 2-3 1-4v-1h1l1 3 1-2-1-3v-1l1-1-1-1-2-4s0-3 2-4l-1-6-6-1-3 1c-1 1-2 4-1 5l1 3h1l2 4c1 1 1 3-1 4l-7 4s-2 0-2 2l1 1v-1 1h2l1 1h1l1-1 1 1m6 2v-1-2l-1 1-1 1v-1-2l-1 1-2 2a2 2 0 01-1 0l-1-1a2 2 0 01-1 1l-1-1h-1l-2-1-2-1c0-2 3-3 3-3l7-4v-3l-2-4-2-3 1-5v-1h4l6 1 2 6c-2 1-2 4-2 4l2 4v6l-1 3v1l-1-2c0 2-2 3-2 3l-1 1"/><path fill="#c08532" fill-rule="evenodd" d="M59 95s5 0 6 2v1a23 23 0 001 5v2c1 1-2 2-2 3l-7 3v1h7l7-6-2-4v-2l1-3-1-2v-3s-5-2-8-1l-2 2v2"/><path fill="#e5ae4a" fill-rule="evenodd" d="M56 79s5 1 8 0c4-2 5-1 5-1l5 1 9 1s8 1 11-1c0 0 5-2 4-7 0 0-2-5-9-4-7 0-7 5-6 6l2 2-2-1-3-1-1-2s-1 2-6 4h-2s2-1 2-4l-2 1c0 1-2 3-6 2l2-1 1-1c1-1-2-1-2-1l-2 1h-2l-5-1c-3-2-5-4-4-7 0-4 5-6 6-6l9-1s2 1 5-2c2-2 6-2 6-2s3 0 5-4l-1 5 3-2c1-1 3-2 6-1 4 2 6 2 6 0 0 0 0 2-5 3l-4 2-2 2h1a5 5 0 012 1l2 2s-1-2-6 0-6 2-10 1c-3-1-4-3-7-3 0 0-7-1-12 2 0 0-4 3 0 6 0 0 2 3 10 2l13-3c2-1 9-3 14-2s7 6 7 6 1 3 0 5l-2 3s3 2 2 6c0 0 0-2-2-2l-4-1-7 1 3 2s-5 2-7-1c0 0-1 2 1 2 0 0-2 1-5-1l1 6c0 3 0 5 3 6l4 2-1 3h3c3 0 3 4 4 4h-4s2 1 2 3v3l-1-1-2-1 1 3v2l-2-2-1 2c0 1 0 4-2 4l-2-1h-3l-2-1h-2c0-2 2-2 2-2s3-1 3-4l-2-8c-1-1-2-2-5-2-2-1-4-3-4-5l-1-4c-1 0-5-2-9-1l2 2h-2l-4-1 2 3h-2l-2-1s0 3 2 3h-3l-3-2v4s0-2-2-2l-2-1 1 2-2 3s2 1 2 3l1 3-2-1-1-1v7l-1-2-1-1v6l-1-2h-2v4s0-4-3-1v1l-2 1-1 1h-2-3l-1-1h-1l-1-2 1-1 3-2 2-3 1-5 1-10-2-4-4 2s-3 2-5 1l-2-2h-5-2l2-1 1-2h-3l-4-2h2l3-3-3-1-3-1h2l2-3-1-2v-1c-1 0-2 0-3-2l-2-1 1-2 2 1-1-2-1-2h2l2 2v-1l-1-3h2l1 1v0h2l1 1-1 3 3 6 7 4 21-2h9"/><path fill="#85b3da" fill-rule="evenodd" d="M53 112s2 0 1 2h-2l1-2"/><path fill="#231f20" d="M53 113l-1 1 2-1h-1m-1 2s-1-2 1-3l1 1v1l-2 1"/><path fill="#85b3da" fill-rule="evenodd" d="M55 115s1-2-1-1v1h1"/><path fill="#231f20" d="M54 114v1l1-1h-1m0 2v-3h2v2h-1l-1 1"/><path fill="#85b3da" fill-rule="evenodd" d="M57 115s0-2-1-1v2l1-1"/><path fill="#231f20" d="M56 115h1v-1l-1 1m0 1h-1l1-2h1v1l-1 1"/><path fill="#85b3da" fill-rule="evenodd" d="M60 115s0-2-1-1v2l1-1"/><path fill="#231f20" d="M59 114v2a2 2 0 011-1l-1-1m0 3l-1-1 1-2 1 1-1 1v1"/><path fill="#162c53" fill-rule="evenodd" d="M70 58s-3 1 0 2l3 1 4 2h6l4-2h4v1l-2-2-2-1 2-2 2-2h3l4-2h-3l-5-1-5 2-2 1 1-2v-3l-3 3-2 1-3 1-3 1-3 2m-2 14l17-4s-4 2-2 6l2 2-3-1s-3 0-3-3l-4 3-2 1h-2l2-2v-2l-2 2-2 1h-4l2-1s2-1 1-2m27 9l4-2s3 2 2 6l-1-2-5-2m-8 2h-8s1 2 3 3h3s-1 1-1-2c0 0 0 2 7 1l-4-2M46 94s12-4 14-3l2 2h-2l-4-1 2 3h-2l-2-1 1 3-4-1-1-1v4l-1-2-3-1v-2m-1 7s-5 6-7 14 1-1 2 0v-3h2l1 3v-3l-1-3s2-1 2 1l1 1v-2-4h1l2 2-1-3-2-3m42 1l1 11 2 2v-2l-1-3s1-1 2 1l1 1v-3c0-2-2-3-3-3h5l-1-1c-1-2-2-3-4-3h-2m-17 5l-6 5 1 1v1l1-1 1 2s2-2 1-5l2 3 1-2-1-4M13 78l8 14h-1-5l2-1 1-2h-4l-4-2h1l3-2 1-1h-2l-2-1-2-1h2l2-2v-2"/><path fill="#5e85a9" fill-rule="evenodd" d="M83 52s-1 2-3 2c-3 1-5 0-8 4l6-2 5-4"/><path fill="#5e85a9" fill-rule="evenodd" d="M91 53h-4l-3 2-2 1h-3c-2 0-5 1-7 3l9-2 3-1 2-2c2-1 4-2 5-1m-2 7l-6 2c-1 1-5 2-8-1 0 0 2 2 6 1l8-2"/><path fill="#5e85a9" fill-rule="evenodd" d="M95 54s-4-1-9 3l4-4h4s-4-1-6 1c-3 1-3 3-8 3l-8 2a33 33 0 013 0h10l3-2 2-2 2-1h3m-13 7s-4 2-8 0l-3-1 3-1 8 2"/><path fill="#5e85a9" fill-rule="evenodd" d="M75 59a34 34 0 012 0h3l2 1h3-4a4 4 0 01-2 0h-1l-1-1h-2"/><path fill="#5e85a9" d="M82 83h-2l2 3-1-2 3 2s-2-1-2-3m2 0l3 1s-2 1-3-1m2 0h1l2 2s-2 0-3-2m10-2l1-1 3 2-4-1m2-1h1l1 3-2-3m-28-8l2-1s-2 3-4 3l2-2m5-1h1l-3 4 2-4m2-1s0 3-3 4c0 0 4-1 4-4h-1m6-1s-2 2-1 4v-2s-2 2 0 3c0 0-2 0-2-3 0 0-1 2 2 4 0 0-4-1-2-5l3-1"/><path fill="#5e85a9" fill-rule="evenodd" d="M44 102s2 0 2 1l-2-1s2 1 2 3c0 0 0-2-2-2l2 2s-1-2-3 0l1-3"/><path fill="#5e85a9" fill-rule="evenodd" d="M42 105s2-1 2 2c0 0 0-2-1-1l2 3-2-2 1 2s0-2-3-1l1-3M40 109s3-1 3 2l-2-1s2 0 1 2l-2-1s2 0 2 2c0 0 0-2-3-2l1-2m-1 3l1 2-1-1v-1"/><path fill="#5e85a9" fill-rule="evenodd" d="M39 113l1 1h-2l1-1M38 114l2 1-2-1m26-2h1v1l-1-1m3-2l1 3-1-2m-1 0h1v3l-1-3m2-2h1l1 2-2-2m1 0l1-1v2l-1-1m18-7v4s4-2 5-1l-3-1h3l-5-2m1 4v3l3 1-2-1s1-1 2 1c0 0 0-2-2-3l2 1s0-2-3-2m0 4v1l1 2-1-2 1 2-1-3"/><path fill="#5e85a9" d="M47 94h1l1 2 1 2-2-2-1-2m1 0h1l1 2-2-2m2-1s1 3 3 3c0 0-2 0-3-3"/><path fill="#5e85a9" d="M51 93h1l1 2-1-2 1 3s-2-1-2-3m2-1h2l1 2-1-1s-1 1 1 1c0 0-2 1-3-2m5-1h1l1 1h-2-2l2-1m-39-3l2 3-3 1 2-1-4 1 3-2-3 1s3-1 3-3m-2-3l1 2s-1 3-4 1c0 0 3 1 3-1 0 0-2 2-4 0 0 0 3 1 4-2m0-1v1l-3 1 3-2m-3-5s0 3-3 3l4-1s-1 2-4 1h5s-1 2-4 1h4l-2-4"/><path fill="#231f20" d="M46 97l-1-3h1l15-3-15 3 1 3h-1m18 16v-1l7-5-7 6m24 1l-1-13 1 1v12m-8-28l-1-3v-1h11v1H80l1 3h-1"/><path fill="#e5ae4a" fill-rule="evenodd" d="M95 82l4-3"/><path fill="#231f20" d="M95 82v-1l4-2-4 3M21 92l-9-15h1l9 15h-1"/><path fill="#c98e37" fill-rule="evenodd" d="M71 81h2a9 9 0 012 2c2 2 3 5 3 8 1 9 7 9 7 9s-5-2-5-6v-8c-1-3-3-5-6-6h-4l1 1"/><path d="M83 119v-2l1-1h1l-1 1-1 1v1m-3-1v-1l1-1h1v-1 1h-1v1a4 4 0 00-1 1m-3 0v-1h1v-1h1v1h-1v1h-1m-18-3h-1l1-1v-1h1v-1h1v1l-1 1h-1v1m-3 0v-2h1l1-1v1h-1v1h-1v1m-2-1v-1h1l1-1v1h-1a4 4 0 00-1 1m-25 5v-1l1-1v-1h2l-1 1h-1v1l-1 1m-2-2v-1h2l-1 1h-1M11 69l1 1v1a2 2 0 01-1-1 3 3 0 010-1m3-1a3 3 0 010 2 2 2 0 010-1 3 3 0 010-1"/><path fill="#c98e37" fill-rule="evenodd" d="M86 100a294 294 0 000 11l1 1v1l-1 3-2-1h-3l1-2h3v-11l1-2"/><path fill="#d39a3e" d="M78 102l-2-2-3-1-3-4v-3l3 3c0 3 5 7 5 7"/><path fill="#c98e37" fill-rule="evenodd" d="M45 95l1 3s-5 6-9 17l-1 2v1h-2l2-2s-1-1-3 1l-1 1s2-4 5-6c0 0 3-10 6-13l2-4m34-13h11c1 0 8-1 10-5 0 0-1 5-21 5"/><path fill="#c98e37" d="M30 92l-1 1-4 1a4 4 0 01-2-1l-1-1-1-1a1428 1428 0 01-3-6 2701 2701 0 01-3-4v-1l-3-4c-2 0-3-2-3-2l3 1-2-4s3 2 4 5c0 0 8 13 10 14 2 0 4-3 4-3l2 5"/><path fill="#231f20" d="M65 86v1h1l1 1 1 2a15 15 0 011 3v2-2l-1-1v-2l-1-1-1-1v-1h-1v-1"/><path fill="#c98e37" fill-rule="evenodd" d="M68 92s-4-4-22 2v-5l1 1s0 2 3 2c2-1 11-6 14-5s4 5 4 5"/><path fill="#231f20" d="M46 96l-1-1v-1l1-1v3"/><path fill="#efc283" fill-rule="evenodd" d="M69 81s-6-1-3 4c0 0-2-4 3-4m-15-1h7l-7 2h-2l2-2m-18 22h2l-5 11-2 1s4-5 5-12M16 72l2 5-2-4v-1"/><path fill="#231f20" d="M99 79zm-16 39h1l1 1 1-3v-1l2-2 1 1a3 3 0 010-1c1-2-1-3-1-3l1-1a2 2 0 012 1l1 1a33 33 0 01-1-2c0-2-2-3-2-3l2-1h1l1 1v-1c-1-1-1-2-3-2l-3-1v-1-2l-3-1c-3-2-3-4-3-7l-1-6-1-2 2 2 3 1v-3 1l4 1h2l-2-2h-1 1l7-2h1a17 17 0 002 1l2 1h1a8 8 0 00-1-1v-2a3 3 0 00-1 0v-1l1-3v-5l-1-2c-2-2-5-4-9-4l-10 2-4 1a85 85 0 01-13 3l-5-2-3-2v-3c1-2 5-4 7-4a22 22 0 014 0l7 1 2 1 5 1 5-1h1v-1h5l-3-2h-3 1l1-1a7 7 0 001 0l1-1 1-1 2-1h1l4-2a9 9 0 01-2 0h-3a8 8 0 00-1-1 7 7 0 00-3 0 10 10 0 00-3 2h-1v1h-1-3 2l1-2v-1c-1 2-4 2-4 2-1 0-4 0-6 3l-2 1-2 1h-3c-5 0-12 0-13 6 0 3 1 5 4 6l6 1h5v2a16 16 0 01-2 1 6 6 0 004-1l1-1 2-1v3l-1 1 1-1a13 13 0 004-2l1-1 1-1v1c0 2 1 2 2 3h3l-2-2 1-4 3-1h9l3 4c1 2 0 4-1 5l-4 3h-6a58 58 0 01-2 0l-9-1a228 228 0 01-4 0 50 50 0 01-1-1h-3l-3 1-5 1-4-1h-2l-7 1a519 519 0 01-22 2l-6-5-3-5v-3a17 17 0 000-1v-1h-2v3l-1-1v-1-1-1l-1 1h-1l1 1v2h-1l-1-2H9v1 1l1 2v1l-2-1v1l1 1 2 2h1l1 1 1 2c0 2-2 3-3 3h-1l2 1 3 1h1l-1 1s-1 2-3 2h-1l3 1a4 4 0 003 1l1-1v1l-2 2-1 1h5l1-1 1 1v1l2 1 4-1 4-2h1l1 4v10l-2 5-1 3-3 2h-1l-1 1 1 1h1l1 1h2v1l1-1a5 5 0 002 0h2v-1l1-2 2-1 1 1v-2l1-1 1 1 1 1v-2l-1-3v-1h1l1 2 1 1v-1-2a5 5 0 000-1 6 6 0 00-1-1v-1h1l1 1h1l-1-2-1-3v-1l1-2-1-3 1 1 2 1 2 1a7 7 0 000-2l-1-3 1 2 3 1a19 19 0 012 1l-3-4 2 1 2 1h1l-1-2v-1l5 1-1-2 3-1 6 2 1 4c0 2 2 4 4 4l5 3 2 8c0 2-1 4-3 4l-2 2h2l2 1h3m1 1h-1-3l-2-1h-1l-1-1c0-2 1-2 2-2 2-1 2-3 2-4l-1-7c-1-2-3-2-5-3l-5-5-1-4-5-1h-2l2 2h-6l1 1 1 1h-1-2a8 8 0 01-1 0l2 3h-1l-3-1-2-1-1 3v2-2l-2-2h-1v1l-1 3 1 2 1 4h1-1l-2-1a6 6 0 00-1 0v1a6 6 0 011 1l-1 1v3l-2-2a9 9 0 010 2v4-1l-2-2-1 4v1-1l-1-2-2 1v1l-1 2h-1-1a6 6 0 01-2 0h-3l-1-1h-1l-1-1-1-1 2-2h1l2-2 2-2 1-5 1-10-2-3-4 2h-4l-2-1h-1v-1l-3 1h-2l-3-1h1l2-1 1-1h-1l-3-1-3-1H9l1-1 2-1 2-1-3-1a18 18 0 00-2-1l-1-1h1l2-1 2-2-1-2h-1v-1l-2-1-2-2 1-2h1v1a3 3 0 000-1l-1-2v-1h1l1-1 1 1v-2h2l1 1v-1l1 1 1-1 1 1v5l2 4c2 3 6 4 7 5l21-2h7a5 5 0 011-1l1 1h4l4-1 4-1 3 1h1a247 247 0 0015 2h1l4-1 4-2c2-1 2-3 2-5l-4-3-7-1-3 2-1 3 2 2 1 1h-1l-4-1-2-2-1 1h-1a14 14 0 01-4 2l-2 1h-1l-1-1h1l2-2v-1l-1 1-1 1-5 1-1-1h1a15 15 0 002-2h-4l-6-1c-4-2-5-4-5-7 1-6 9-7 14-7h3l2-1 2-1c2-2 5-2 6-2 0 0 3-1 5-4v-2 2a13 13 0 010 3v1l1-1a13 13 0 013-1 7 7 0 013 0h2a8 8 0 005 0h1v1s-1 2-6 2h-1l-2 2h-1l-1 1v1c1 0 3 0 4 2v1h-4-2l-1 1-5 1-5-2a36 36 0 00-2 0l-7-2-4 1c-3 0-6 2-7 3l1 3 2 2 5 1h3l10-3 4-1 10-1c5 0 8 1 10 4l1 2v5l-1 3v1l1 2v3-1h-1l-2-1h-1l-1-1h-1l-6 1a9 9 0 002 2h1-1l-3 1-4-1 1 1h2l-1 1h-2l-3-1 1 5c0 3 0 5 2 6l3 1h1v3l2 1c2 0 3 1 3 2l1 2h1v1h-1l-2-1h-2c1 0 2 1 2 3v3l1 1-1-1-2-1a1 1 0 00-1-1l1 3 1 1v1h-1-1l-1-1-1 1v1c0 1 0 3-2 3h-1"/><path fill="#162c53" fill-rule="evenodd" d="M33 60l-2-1a8 8 0 01-1-1l-1-1 3 1h2l-1-1-1-3a3 3 0 001 2h2c1 0 3 1 3 3 0 0 2-1 1-3 0 0 2 0 3 3 0 0 2-2 4 2h-1s2 0 3 4c1 3 2 5 4 5l-2 1s0 8 6 8c0 0-3 2-6 1l-2 5s-2 1-1 3c0 0-2-1-1-3l-4 7v3s-2-1-1-5l-3 5-2 4v-1a7 7 0 010-1l-1-2v2a9 9 0 01-1 1v-1l-1-2c-2-1-3-2-3-5l-3 3s3-2 0-6h-1s-2-1-3-4v-3 1h-3c2 0 2-1 2-3l2-4-4-1s2 1 3-3l-1 1s0-4 5-6h-1l2-1-2-1 1-1a4 4 0 011 0l1-1h-1-1a4 4 0 011-1h5"/><path fill="#231f20" d="M35 94v1l1 1v2l2-3 3-5 1-3-1 3v3a6 6 0 011-2l4-7v3c0-2 1-3 2-3l2-4v-1 1h1l3-1c-4-1-5-7-5-8h1a3 3 0 001 0c-2-1-3-3-4-6l-2-4-3-1h4l-3-1h-2c0-2-1-2-2-3v3h-1l-3-3h-2v1h1v1l2 1-2-1h-2a4 4 0 01-2 0l2 1 1 1 1 1h-1l-1-1h-1a6 6 0 00-1 0h-2v1h2l-1 1h-2v1h1v1l-1 1h1l-1 1c-3 1-4 3-5 4h2l-3 3 1 1 2-1h2l-2 1-1 4-1 3v-1h1l1-2v5c0 3 2 3 2 3l1 1 2 4v1l1-2v-2 2l3 5 1 2 1-1v-1zm-1 6v-2-1a4 4 0 00-1-1l-1-1-2-4-2 2-3 1 2-2 1-1-2-4-3-4a9 9 0 010-2 3 3 0 01-1 0l-1 1h-1l-1-1h1l2-3 1-4a7 7 0 01-1 0h-3l-2-2 3 1c1 0 2 0 3-3l-1 1-1 2v-2s1-3 4-5l1-1 1-1a3 3 0 00-1-1v-1h1v-1h-1 1l1-1 2-1h1-1l-1-2v-1l1 1h3l-2-3v-1l1 1 1 1 2 1 3 2v-3h1c1 0 3 1 3 3a3 3 0 011 0c1 0 3 0 4 3l1 2-2-2 2 4c1 2 2 5 4 5h1l-1 1-2 1c0 1 1 6 5 6h2l-1 1-5 1-3 5-1 3 1 1h-1l-2-2-3 5v2l1 2-1-1s-2 0-2-3a41 41 0 01-2 3l-1 4v1l-1-1v-1a8 8 0 01-1-1 9 9 0 010 1h-1v2"/><path fill="#5e85a9" fill-rule="evenodd" d="M41 81s1 3 0 7c0 0 3-4 1-8l-1 1m-19-1h1v-1l1-2v-1h1l2-2v2h-1a2 2 0 00-1 1 3 3 0 00-1 0v2h-1l-1 1"/><path fill="#5e85a9" fill-rule="evenodd" d="M27 76s-5 3-2 9c0 0-2-5 2-7v-2"/><path fill="#e3aa36" fill-rule="evenodd" d="M34 65l-1-1h2v-1l1 1v-1l1 1h3l-1 1s2 0 3 3v4l1 3v2h-1v-1 2l-2 3-2 3v2l-1 2v-2l-1 2-1 1v-1l-1-1v1l-1-2v2s-2 0-2-3v-1l-2-6v2l-1-3-1 1v-2l1-3 1-3 1-4c1-1 2-2 4-1"/><path fill="#231f20" d="M34 86h1v2h1l1-2v-2 2l1 1v-1-2l2-3 2-3v-3l1 1-1-1a7 7 0 010-2v-1-1l-1-3c0-2-2-3-2-3v-1l-1 1h-1v-1 2l-1-2-1-1 1 1v2l-1-1-1-1v1l1 1-1-1h-1l-3 2-1 3-1 3v4-2 2a10 10 0 000 1h1v-1l2 6 1 2v2l1-1 1-1v1 0zm1 4v-1l-1-1v1-1l-1-1v1h-2v-3-1l-2-5v2h-1v-3l-1 2v-2-2-3l1-3 2-4 3-2-2-1h2l2 1-1-1v-1h1l1 1v-1l2 2h4l-2 1 2 3v3l1 1v6-1l-1 2a51 51 0 00-3 5v3l-2 1h-1v1h-1v1"/><path fill="#e5ae4a" fill-rule="evenodd" d="M25 67l-1-1 1-2 2-1 1 1-2 1h1l-2 2"/><path d="M26 63l-1 1v2l1-1 1-1v-1h-1m-1 4l-1-1v-3h4v1l-1 1h1l-1 1-2 1"/><path fill="#e5ae4a" fill-rule="evenodd" d="M42 66l3 2v-3h-2l-1 1"/><path d="M43 65l2 2v-2h-2m2 3l-3-2v-1l2-1 1 1v3"/><path fill="#5e85a9" d="M40 57s1 2 0 3c-2 1-2 3-2 3l2-2 1-2-1-2"/><path fill="#5e85a9" d="M40 62s2-4 5-2c0 0-3-1-5 2m-6-5s4 1 4 3c0 0 2-2 1-4v4l-1 3s1-4-4-6"/><path fill="#5e85a9" d="M32 56l4 3-2-2s4 2 3 6l-1-1s1-3-1-4l-3-2"/><path fill="#5e85a9" d="M31 58h1c1 0 3 1 3 3v1h-1v-3l-3-1m-2 2s2-1 4 1l2 2h-1l-2-2-3-1"/><path fill="#5e85a9" d="M33 63s-1-3-4-3c0 0 3 1 3 3h1m-1 1h-1s-2-1-4 1c0 0 2-2 5-1M31 65h-4 4m-1 0l-3 1c-1 0-3 1-5 4 0 0 3-3 6-3l-4 2s4-2 5-1l1-3"/><path fill="#5e85a9" d="M21 73l3-2c1-3 4-3 5-2h-1l-3 1-4 3m18-10s3-3 5-2c3 2 3 5 3 5s1 3 3 5c0 0-3-2-4-5 0 0-1-5-5-3l-1 1h-1v-1m1 19s2 7-1 11l-3 5 2-5c2-4 1-10 1-10l1-1"/><path fill="#5e85a9" fill-rule="evenodd" d="M39 85l-1 6-2 5 1-4 1-4 1-3m2-19h1l2 2s-1-2-3-2m1 1l3 3-1-1v1l-2-1v-2m-14 3a3 3 0 00-1 0l-2 1-1 1-2 1h2c1-1 3-3 4-2v-1M38 88l-2 5v1l2-6m-7-3l-1 2 1 5 1 2 2 2-2-4-1-4v-3m19-6h4s-2 1-5-3-6-4-6-4v2s4 0 6 4c1 3-2 6-2 6s3-2 3-5"/><path fill="#5e85a9" fill-rule="evenodd" d="M43 75s5 0 5 3v5l-2 3 2-5c0-2-1-3-2-3a8 8 0 00-3-1v-2"/><path fill="#5e85a9" fill-rule="evenodd" d="M45 78s3 1 1 6c0 0 1-5-1-6m-17-6l-4 3-1 3 2-4 2-1 1-1"/><path fill="#5e85a9" fill-rule="evenodd" d="M42 79v1l1 3-1 7-1 2 2-4c2-1 5-8 1-10l1 6-2 4s3-5 0-10l-1 1m-12 2s-2 2-2 5l1 4v-4l1 3v-3-5"/><path fill="#5e85a9" fill-rule="evenodd" d="M28 79s-2 2-2 5l2 5s-2-7 0-8v-2m15-9s5 2 6 5l4 3s-2 1-3-1l-5-5h-2v-2M45 70l4 3 1 1-4-3-1-1"/><path fill="#f9e8b6" fill-rule="evenodd" d="M38 75s2 0 1 2v2l-2 6-2-2-2 1-2-2v-3s-2-3-1-4c2-1 5 1 5 1l3-1"/><path fill="#5e85a9" fill-rule="evenodd" d="M32 88v4l2 3 2-6-1 2s-3-1-3-3"/><path fill-rule="evenodd" d="M37 76s7-3 13-1c0 0-5-1-13 1m1 1s6-1 11 2c0 0-5-3-11-2m-1 0s6 2 9 6l-9-6m-5-1s-5-4-11-3c0 0 5 0 11 3m0 0s-3-2-9 1c0 0 4-2 9-1m0 1s-5 1-8 4c0 0 3-3 8-4"/><path fill="#231f20" fill-rule="evenodd" d="M31 78s3-2 4-1l3 2-1 5h-4l-1-1v-3l-1-2"/><path fill="#fff" fill-rule="evenodd" d="M32 78h1v1l-1-1m5 1l-1 1 1-2v1m-4 3l1 1h-1v-1m3 1h1l-1-1v1"/><path fill="#b21f2f" fill-rule="evenodd" d="M34 83h1l1-1c0-1 0-1 0 0v-2h-1l-2 1 1 1v1"/><path fill="#ba7f2c" fill-rule="evenodd" d="M34 70h1l-1 1v-1m3 0v2l-2-1v-2s1 2 2 1"/><path fill="#231f20" fill-rule="evenodd" d="M30 70l2-1 2 2v1l-2 3h2l1 1 1-1c1 0 2 0 1-1v-2-2h4v1l-1-1-1 2-2-1v2l1 2-1 1h-4l-1-2 1-2v-1h-1l-1-1h-1"/><path fill="#e0bd2d" fill-rule="evenodd" d="M32 70v1l1-1v1h-1v-1m6 1h1v-1 1h-1"/><path fill="#b96367" fill-rule="evenodd" d="M32 74l5 1-2 1h-1l-1-1h-1v-1"/><path fill="#fff" fill-rule="evenodd" d="M38 71"/><path fill="#ba7f2c" fill-rule="evenodd" d="M34 72h-1 1"/><path fill="#efc283" fill-rule="evenodd" d="M30 67s2-3 4-1l-4 1m2 2l2 1h1-1l-2-1"/><path fill="#5e85a9" d="M31 63h-1 2s-2-2-4 0h3m9 1h4s-1-2-4 0"/><path fill="#efc283" fill-rule="evenodd" d="M72 89s1 5 3 8l-2-6-1-2m21-22s7 2 6 8c0 0 3-7-6-8"/><path fill="#85b3da" fill-rule="evenodd" d="M14 67h2s0-2-2-2v2"/><path d="M15 67v-1l-1-1 1 2m0 0h-1v-2h-1 1l2 1v1h-1"/><path fill="#85b3da" fill-rule="evenodd" d="M12 67l1-1-2-1 1 2"/><path d="M12 67v-1 1m0 0h-1v-2h-1 1c2 0 2 1 2 2a1 1 0 01-1 0"/><path fill="#85b3da" fill-rule="evenodd" d="M8 69l1-1H7l1 1"/><path d="M8 68l1 1v-1H8m0 1l-1-1v-1h1l2 1-2 1"/><path fill="#85b3da" fill-rule="evenodd" d="M8 72v1s-2-1-1-2l1 1"/><path d="M7 71l1 2v-1l-1-1m1 2l-2-2v-1l1 1 1 1 1-1v1l-1 1"/><path fill="#85b3da" fill-rule="evenodd" d="M26 116s1-1 1 1l-1 1v-2"/><path fill="#231f20" d="M26 116v2l1-1v-1h-1m0 3l-1-1 1-2 1-1v2l-1 1v1"/><path fill="#85b3da" fill-rule="evenodd" d="M29 118s0-1-2-1v2l2-1"/><path fill="#231f20" d="M28 117a2 2 0 00-1 2l1-1v-1m-1 3v-3h2v2h-1l-1 1"/><path fill="#85b3da" fill-rule="evenodd" d="M31 119s0-2-1-1v2l1-1"/><path fill="#231f20" d="M30 118a1 1 0 000 1h1v-1h-1m0 2v-3l1 1v1l-1 1"/><path fill="#85b3da" fill-rule="evenodd" d="M32 118h2l-1 2-1-2"/><path fill="#231f20" d="M33 118v2l1-2h-1m0 2h-1v-2h2v1l-1 1"/><path fill="#85b3da" fill-rule="evenodd" d="M76 116s2 1 1 2h-2l1-2"/><path fill="#231f20" d="M76 117v1l1-1h-1m-1 2l1-3 1 1v1l-1 1h-1"/><path fill="#85b3da" fill-rule="evenodd" d="M78 117l1 1-1 1v-2"/><path fill="#231f20" d="M78 117v2l1-1-1-1m0 3l-1-1 1-2 1 1-1 1v1"/><path fill="#85b3da" fill-rule="evenodd" d="M80 118s2-1 2 1l-2 1v-2"/><path fill="#231f20" d="M81 118l-1 1a2 2 0 011-1m-1 2v-2l1-1 1 2-2 1"/><path fill="#85b3da" fill-rule="evenodd" d="M83 118s2-1 2 0l-1 2-1-2"/><path fill="#231f20" d="M83 118l1 1v-1h-1m1 2h-1v-2l1-1 1 1v1l-1 1M42 66l3 1v1h1v1h1v1h-1a21 21 0 00-1-1h-2v-1a20 20 0 012 2l1 1v1l1 1h-1v-1a12 12 0 00-1-1 24 24 0 00-1-2 24 24 0 00-1-1h-1 3a18 18 0 011 1v1-1h-1a11 11 0 00-1-2 33 33 0 00-2-1m-4 49h-1c3-8 8-14 8-15v1s-5 6-7 14m29-42l-1-1 21-5 1 1-21 5"/><path d="M32 119v-2h1v-1h2l-1 1h-1l-1 1v1"/><path fill="#001e61" d="M144 30l-10-15v15h-5V5h5l9 16V5h5v25h-4m18-17l-3 9h6zm6 17l-2-4h-8l-2 4h-5l9-25h4l9 25h-5m23 0l-10-15v15h-5V5h4l10 16V5h5v25h-4m19-10v10h-5V20l-7-15h5l5 10 4-10h6l-8 15m17-7l-3 9h6zm6 17l-1-4h-9l-2 4h-5l9-25h4l9 25h-5m23 0l-10-15v15h-5V5h4l10 16V5h5v25h-4m25-2c-2 2-4 2-7 2l-7-2c-2-3-2-6-2-10s0-8 2-10 4-3 7-3c6 0 9 4 9 8h-4c-1-2-2-3-5-3l-3 1-1 7 1 7 3 1 4-1 1-4v-1h-5v-4h9v4c0 4 0 6-2 8M139 42v21h-5V42h-7v-4h18v4h-6m10 21V38h16v4h-11v6h10v5h-10v6h11v4h-16m29 0c-2 0-5-1-6-3-3-2-3-5-3-10 0-4 0-7 3-9 1-2 4-3 6-3 5 0 8 3 9 8h-5c0-2-1-4-4-4l-3 2-1 6 1 7 3 2c3 0 4-2 4-4h5c-1 5-4 8-9 8m27 0V52h-9v11h-4V38h4v10h9V38h4v25h-4m25 0l-10-15v15h-5V38h5l9 15V38h5v25h-4m21-19l-3-2-3 2-1 6 1 7 3 2 3-2 1-7-1-6m4 16c-2 2-4 3-7 3s-5-1-7-3-2-5-2-10c0-4 0-7 2-9s4-3 7-3 5 1 7 3 2 5 2 9c0 5 0 8-2 10m7 3V38h5v21h11v4h-16m31-19l-3-2-4 2-1 6 1 7 4 2 3-2 1-7-1-6m3 16l-6 3c-3 0-5-1-7-3-3-2-3-5-3-10 0-4 0-7 3-9 2-2 4-3 7-3l6 3c3 2 3 5 3 9 0 5 0 8-3 10m23 0c-2 2-5 3-7 3-3 0-5-1-7-3s-2-5-2-10c0-4 0-7 2-9s4-3 7-3c6 0 8 4 9 8h-5c0-2-2-4-4-4s-3 1-3 2l-1 6 1 7c0 1 1 2 3 2l3-2 1-3v-1h-4v-4h9v4l-2 7m7 3h5V38h-5zm19 0c-3 0-5-1-7-3s-2-5-2-10c0-4 0-7 2-9s4-3 7-3c4 0 8 3 9 8h-5c0-2-2-4-4-4l-3 2-1 6 1 7 3 2c2 0 4-2 4-4h5c-1 5-5 8-9 8m21-18l-3 9h6zm6 18l-2-5h-8l-2 5h-5l9-25h4l9 25h-5m8 0V38h5v21h11v4h-16M138 96c-5 0-9-4-9-9V71h5v16c0 3 1 4 4 4s4-1 4-4V71h5v16c0 5-4 9-9 9m29-1l-10-15v15h-5V71h5l9 15V71h5v24h-4m10 0h5V71h-5zm20 0h-4l-8-24h5l5 16 5-16h5l-8 24m11 0V71h16v4h-11v6h9v4h-9v6h11v4h-16m30-20h-4v7h4c2 0 4-2 4-4s-2-3-4-3m4 20l-5-9h-3v9h-5V71h9c5 0 8 3 8 7s-2 6-4 7l5 10h-5m16 1c-4 0-6-1-9-4l3-3c2 2 4 2 6 2 3 0 5-1 5-3l-1-2-2-1h-3l-5-2-2-5c0-4 3-7 9-7 3 0 6 0 8 2l-3 3-5-1c-3 0-4 1-4 3l1 2 2 1h3l4 2c2 1 2 3 2 5 0 5-4 8-9 8m14-1h5V71h-5zm20-20v20h-5V75h-6v-4h17v4h-6m20 10v10h-5V85l-8-14h6l4 10 5-10h5l-7 14"/><path fill="#e01932" d="M126 107h192v-3H126zm8 29c-3 0-5 0-7-2l2-3 5 2c3 0 4-1 4-3l-1-2h-1l-3-1-4-1-1-4c0-4 2-6 7-6 3 0 5 0 6 2l-2 2-4-1c-2 0-3 1-3 3v1l2 1h2l4 2 2 4c0 4-3 6-8 6m17 0h4v-20h-4zm25 0l-8-12v12h-4v-20h4l8 12v-12h4v20h-4m26-2c-1 2-3 2-6 2l-5-2c-2-2-2-5-2-8 0-4 0-6 2-8 1-2 3-2 5-2 5 0 8 3 8 6h-4c0-2-2-3-4-3l-2 1-1 6 1 6 2 1 3-1 1-3v-1h-4v-3h8v3c0 3 0 4-2 6m18-12l-3 7h5zm4 14l-1-4h-7l-1 4h-4l7-20h3l8 20h-5m20-17h-4v6h4c2 0 3-1 3-3s-1-3-3-3m0 9h-4v8h-4v-20h8c4 0 7 3 7 6 0 4-3 6-7 6m24-8l-2-1-3 1-1 6 1 6 3 1 2-1 1-6-1-6m3 14l-5 2-6-2c-2-2-2-5-2-8 0-4 0-6 2-8s4-2 6-2 4 0 5 2c2 2 2 4 2 8 0 3 0 6-2 8m19-15h-4v6h4c2 0 3-1 3-3s-1-3-3-3m3 17l-4-8h-3v8h-4v-20h8c5 0 7 3 7 6s-2 5-4 5l5 9h-5m13 0v-20h13v3h-9v5h8v4h-8v5h9v3h-13"/></svg>